<svg xmlns="http://www.w3.org/2000/svg" viewBox="0 0 1200 900" role="img" aria-hidden="true">
  <rect width="1200" height="900" fill="#F2ECDE" />
  <g transform="translate(600 450) scale(1.1124) rotate(5) translate(-600 -450)">
    <rect x="4.0" y="4.0" width="192.0" height="172.0" fill="#b86b00" />
    <rect x="204.0" y="4.0" width="192.0" height="172.0" fill="#d18600" />
    <rect x="404.0" y="4.0" width="192.0" height="172.0" fill="#ff8300" />
    <rect x="604.0" y="4.0" width="192.0" height="172.0" fill="#b36f00" />
    <rect x="804.0" y="4.0" width="192.0" height="172.0" fill="#ca8b00" />
    <rect x="1004.0" y="4.0" width="192.0" height="172.0" fill="#d3a600" />
    <rect x="4.0" y="184.0" width="192.0" height="172.0" fill="#a69d00" />
    <rect x="204.0" y="184.0" width="192.0" height="172.0" fill="#9fba00" />
    <rect x="404.0" y="184.0" width="192.0" height="172.0" fill="#62902b" />
    <rect x="604.0" y="184.0" width="192.0" height="172.0" fill="#4db24b" />
    <rect x="804.0" y="184.0" width="192.0" height="172.0" fill="#00ce6f" />
    <rect x="1004.0" y="184.0" width="192.0" height="172.0" fill="#009a6e" />
    <rect x="4.0" y="364.0" width="192.0" height="172.0" fill="#00d1ad" />
    <rect x="204.0" y="364.0" width="192.0" height="172.0" fill="#009994" />
    <rect x="404.0" y="364.0" width="192.0" height="172.0" fill="#00b4c6" />
    <rect x="604.0" y="364.0" width="192.0" height="172.0" fill="#00c6f8" />
    <rect x="804.0" y="364.0" width="192.0" height="172.0" fill="#008fc0" />
    <rect x="1004.0" y="364.0" width="192.0" height="172.0" fill="#00a3f4" />
    <rect x="4.0" y="544.0" width="192.0" height="172.0" fill="#3583d0" />
    <rect x="204.0" y="544.0" width="192.0" height="172.0" fill="#5f94ff" />
    <rect x="404.0" y="544.0" width="192.0" height="172.0" fill="#899bff" />
    <rect x="604.0" y="544.0" width="192.0" height="172.0" fill="#7c70cf" />
    <rect x="804.0" y="544.0" width="192.0" height="172.0" fill="#a87cf1" />
    <rect x="1004.0" y="544.0" width="192.0" height="172.0" fill="#d380ff" />
    <rect x="4.0" y="724.0" width="192.0" height="172.0" fill="#c970d4" />
    <rect x="204.0" y="724.0" width="192.0" height="172.0" fill="#f472dc" />
    <rect x="404.0" y="724.0" width="192.0" height="172.0" fill="#ba5990" />
    <rect x="604.0" y="724.0" width="192.0" height="172.0" fill="#e86496" />
    <rect x="804.0" y="724.0" width="192.0" height="172.0" fill="#ff698b" />
    <rect x="1004.0" y="724.0" width="192.0" height="172.0" fill="#bf641d" />
  </g>
</svg>
